<svg width="70" height="50" viewBox="0 0 70 50" fill="none" xmlns="http://www.w3.org/2000/svg">
<path d="M19.25 28.125C24.0734 28.125 28 24.6191 28 20.3125C28 16.0059 24.0734 12.5 19.25 12.5C14.4266 12.5 10.5 16.0059 10.5 20.3125C10.5 24.6191 14.4266 28.125 19.25 28.125ZM59.5 12.5H33.25C32.2875 12.5 31.5 13.2031 31.5 14.0625V31.25H7V4.6875C7 3.82422 6.21688 3.125 5.25 3.125H1.75C0.783453 3.125 0 3.82422 0 4.6875V45.3125C0 46.1719 0.783453 46.875 1.75 46.875H5.25C6.21688 46.875 7 46.1719 7 45.3125V40.625H63V45.3125C63 46.1755 63.7835 46.875 64.75 46.875H68.25C69.2165 46.875 70 46.1755 70 45.3125V21.875C70 16.6113 65.2969 12.5 59.5 12.5Z" fill="#EB2828"/>
</svg>
